<?xml version="1.0" encoding="UTF-8" standalone="no"?>
<!-- Generated by IcoMoon.io -->

<svg
   xmlns:dc="http://purl.org/dc/elements/1.1/"
   xmlns:cc="http://creativecommons.org/ns#"
   xmlns:rdf="http://www.w3.org/1999/02/22-rdf-syntax-ns#"
   xmlns:svg="http://www.w3.org/2000/svg"
   xmlns="http://www.w3.org/2000/svg"
   xmlns:sodipodi="http://sodipodi.sourceforge.net/DTD/sodipodi-0.dtd"
   xmlns:inkscape="http://www.inkscape.org/namespaces/inkscape"
   sodipodi:docname="relatedticket.svg"
   inkscape:version="0.91 r13725"
   id="svg3387"
   viewBox="0 0 512 512"
   height="512"
   width="512"
   version="1.1">
  <metadata
     id="metadata3398">
    <rdf:RDF>
      <cc:Work
         rdf:about="">
        <dc:format>image/svg+xml</dc:format>
        <dc:type
           rdf:resource="http://purl.org/dc/dcmitype/StillImage" />
        <dc:title></dc:title>
      </cc:Work>
    </rdf:RDF>
  </metadata>
  <defs
     id="defs3396" />
  <sodipodi:namedview
     inkscape:current-layer="svg3387"
     inkscape:window-maximized="0"
     inkscape:window-y="0"
     inkscape:window-x="0"
     inkscape:cy="247.2132"
     inkscape:cx="272.40202"
     inkscape:zoom="0.70710678"
     showgrid="false"
     id="namedview3394"
     inkscape:window-height="987"
     inkscape:window-width="1233"
     inkscape:pageshadow="2"
     inkscape:pageopacity="0"
     guidetolerance="10"
     gridtolerance="10"
     objecttolerance="10"
     borderopacity="1"
     bordercolor="#666666"
     pagecolor="#ffffff" />
  <g
     id="icomoon-ignore" />
  <path
     d="m 231.63138,181.4386 35.71509,39.60425 -71.42964,79.2079 -35.7151,-39.60426 z m 118.73503,-6.96056 -20.51307,-22.74681 -8.93114,9.90369 c -4.56993,5.06819 -10.88491,8.20254 -17.85783,8.20254 -13.94808,0 -25.256,-12.53804 -25.256,-28.00498 0,-7.73594 2.82935,-14.73982 7.40375,-19.808 l 8.92556,-9.89689 -20.51362,-22.746815 c -8.36193,-9.272491 -22.04549,-9.272491 -30.40742,0 L 77.183466,273.49333 c -8.36137,9.27248 -8.36137,24.44672 0,33.71859 l 20.514184,22.74744 8.91831,-9.89008 c 4.57105,-5.07624 10.89049,-8.21554 17.87011,-8.21554 13.94808,0 25.25487,12.53865 25.25487,28.00497 0,7.73719 -2.82934,14.74045 -7.40374,19.80925 l -8.92445,9.89689 20.51307,22.74743 c 8.36137,9.27187 22.04549,9.27187 30.40741,0 L 350.36641,208.19911 c 8.36081,-9.27496 8.36081,-24.44858 0,-33.72107 z M 195.91739,339.85686 124.48607,260.64711 231.63305,141.83248 303.06437,221.04223 195.91739,339.85686 Z"
     id="path3392"
     inkscape:connector-curvature="0" />
  <path
     inkscape:connector-curvature="0"
     d="m 353.23106,293.175 90.19029,0 0,14.14897 -90.19029,0 0,-14.14897 z m 0,42.44692 90.19029,0 0,14.14897 -90.19029,0 0,-14.14897 z m 0,42.44691 90.19029,0 0,14.14897 -90.19029,0 0,-14.14897 z m -54.11418,-77.81935 c 0,-7.81421 8.07598,-14.14897 18.03806,-14.14897 9.96208,0 18.03806,6.33476 18.03806,14.14897 0,7.81422 -8.07598,14.14898 -18.03806,14.14898 -9.96208,0 -18.03806,-6.33476 -18.03806,-14.14898 z m 0,42.44692 c 0,-7.81421 8.07598,-14.14897 18.03806,-14.14897 9.96208,0 18.03806,6.33476 18.03806,14.14897 0,7.81421 -8.07598,14.14897 -18.03806,14.14897 -9.96208,0 -18.03806,-6.33476 -18.03806,-14.14897 z m 0,42.44692 c 0,-7.81422 8.07598,-14.14897 18.03806,-14.14897 9.96208,0 18.03806,6.33475 18.03806,14.14897 0,7.81421 -8.07598,14.14897 -18.03806,14.14897 -9.96208,0 -18.03806,-6.33476 -18.03806,-14.14897 z"
     id="path3456" />
</svg>
